<svg width="46" height="46" viewBox="0 0 46 46" fill="none" xmlns="http://www.w3.org/2000/svg">
<path d="M32.9985 37.0535C30.5419 34.3099 26.9726 32.5833 23 32.5833C19.0274 32.5833 15.4578 34.3099 13.0011 37.0535M23 40.25C13.4731 40.25 5.75 32.5269 5.75 23C5.75 13.4731 13.4731 5.75 23 5.75C32.5269 5.75 40.25 13.4731 40.25 23C40.25 32.5269 32.5269 40.25 23 40.25ZM23 26.8333C19.8244 26.8333 17.25 24.259 17.25 21.0833C17.25 17.9077 19.8244 15.3333 23 15.3333C26.1756 15.3333 28.75 17.9077 28.75 21.0833C28.75 24.259 26.1756 26.8333 23 26.8333Z" stroke="#1D1D1D" stroke-width="2" stroke-linecap="round" stroke-linejoin="round"/>
</svg>
